<svg width="1200" height="800" viewBox="0 0 1200 800" fill="none" xmlns="http://www.w3.org/2000/svg">
<g id="Rooms" clip-path="url(#clip0_2_2)">
<rect width="1200" height="800" fill="#D9D9D9"/>
<rect id="PCE_AREA" x="68.5" y="19.5" width="639" height="545" fill="#D9D9D9" stroke="black"/>
<circle id="NODE_T3" class="node" cx="533" cy="519" r="4" fill="#FF2828" fill-opacity="0.67"/>
<circle id="NODE_L2" class="node" cx="695" cy="285" r="4" fill="#FF2828" fill-opacity="0.67"/>
<rect id="QUAD_AREA" x="177.5" y="114.5" width="338" height="363" fill="#D9D9D9" stroke="black"/>
<text id="T-WING" fill="black" xml:space="preserve" style="white-space: pre" font-family="Katibeh" font-size="20" letter-spacing="0em"><tspan x="310" y="465.8">T-WING</tspan></text>
<text id="P-WING" fill="black" xml:space="preserve" style="white-space: pre" font-family="Katibeh" font-size="20" letter-spacing="0em"><tspan x="529" y="471.8">P-WING</tspan></text>
<text id="J-WING" fill="black" xml:space="preserve" style="white-space: pre" font-family="Katibeh" font-size="20" letter-spacing="0em"><tspan x="876" y="528.8">J-WING</tspan></text>
<text id="ATRIUM" fill="black" xml:space="preserve" style="white-space: pre" font-family="Katibeh" font-size="20" letter-spacing="0em"><tspan x="756" y="208.8">ATRIUM</tspan></text>
<text id="THE QUAD" fill="black" xml:space="preserve" style="white-space: pre" font-family="Katibeh" font-size="20" letter-spacing="0em"><tspan x="327" y="283.8">THE QUAD</tspan></text>
<text id="R-WING" fill="black" xml:space="preserve" style="white-space: pre" font-family="Katibeh" font-size="20" letter-spacing="0em"><tspan x="322" y="138.8">R-WING</tspan></text>
<text id="L-WING" fill="black" xml:space="preserve" style="white-space: pre" font-family="Katibeh" font-size="20" letter-spacing="0em"><tspan x="519" y="163.8">L-WING</tspan></text>
<text id="S-WING" transform="matrix(0 1 -1 0 261 272)" fill="black" xml:space="preserve" style="white-space: pre" font-family="Katibeh" font-size="20" letter-spacing="0em"><tspan x="0" y="11.8">S-WING</tspan></text>
<text id="O-WING" fill="black" xml:space="preserve" style="white-space: pre" font-family="Katibeh" font-size="20" letter-spacing="0em"><tspan x="455" y="286.8">O-WING</tspan></text>
<rect id="S_002" class="room" x="68.5" y="382.5" width="80" height="53" fill="#D9D9D9" stroke="black"/>
<path id="Vector 5" d="M491 91.5695L537.5 70H683V522H633" stroke="black"/>
<rect id="R_004_005" class="room" x="437.5" y="53.5" width="54" height="39" fill="#D9D9D9" stroke="black"/>
<rect id="PLAYGROUND" class="room" x="32.5" y="643.5" width="460" height="127" fill="#D9D9D9" stroke="#1B0D0D"/>
<rect id="COURT" class="room" x="523.5" y="676.5" width="275" height="94" fill="#D9D9D9" stroke="black"/>
<rect id="PARKING" class="room" x="820.5" y="657.5" width="287" height="113" fill="#D9D9D9" stroke="black"/>
<rect id="WORKSHOP" class="room" x="1124.5" y="593.5" width="58" height="177" fill="#D9D9D9" stroke="black"/>
<rect id="T_001" class="room" x="169.5" y="499.5" width="271" height="65" fill="#D9D9D9" stroke="black"/>
<circle id="NODE_ST" class="node" cx="162" cy="487" r="4" fill="#FF2828" fill-opacity="0.67"/>
<circle id="NODE_T2" class="node" cx="533" cy="487" r="4" fill="#FF2828" fill-opacity="0.67"/>
<circle id="NODE_S1" class="node" cx="496" cy="103" r="4" fill="#FF2828" fill-opacity="0.67"/>
<circle id="NODE_S2" class="node" cx="542" cy="82" r="4" fill="#FF2828" fill-opacity="0.67"/>
<circle id="NODE_L1" class="node" cx="695" cy="82" r="4" fill="#FF2828" fill-opacity="0.67"/>
<circle id="NODE_ATR1_CORR" class="node" cx="795" cy="82" r="4" fill="#FF2828" fill-opacity="0.67"/>
<circle id="NODE_ATR2_CORR" class="node" cx="862" cy="15" r="4" fill="#FF2828" fill-opacity="0.67"/>
<circle id="NODE_GATE2" class="node" cx="1062" cy="15" r="4" fill="#FF2828" fill-opacity="0.67"/>
<circle id="NODE_L4" class="node" cx="695" cy="519" r="4" fill="#FF2828" fill-opacity="0.67"/>
<circle id="NODE_SR" class="node" cx="162" cy="103" r="4" fill="#FF2828" fill-opacity="0.67"/>
<rect id="Rectangle 7" class="room" x="439.5" y="499.5" width="71" height="50" fill="#D9D9D9" stroke="black"/>
<rect id="S_003" class="room" x="68.5" y="328.5" width="80" height="55" fill="#D9D9D9" stroke="black"/>
<rect id="S_001A" class="room" x="68.5" y="435.5" width="38" height="34" fill="#D9D9D9" stroke="black"/>
<rect id="LIFT_2" class="room" x="87.5" y="34.5" width="37" height="34" fill="#D9D9D9" stroke="black"/>
<rect id="LIFT_1" class="room" x="78.5" y="514.5" width="37" height="34" fill="#D9D9D9" stroke="black"/>
<rect id="S_001B" class="room" x="106.5" y="435.5" width="42" height="34" fill="#D9D9D9" stroke="black"/>
<rect id="S_005" class="room" x="68.5" y="113.5" width="80" height="98" fill="#D9D9D9" stroke="black"/>
<rect id="S_004" class="room" x="68.5" y="211.5" width="80" height="51" fill="#D9D9D9" stroke="black"/>
<text id="RECEPTION" transform="matrix(0 1 -1 0 175 275)" fill="black" xml:space="preserve" style="white-space: pre" font-family="Katibeh" font-size="11" letter-spacing="0em"><tspan x="0" y="6.39">RECEPTION</tspan></text>
<text id="T-001" transform="translate(192 508)" fill="black" xml:space="preserve" style="white-space: pre" font-family="Katibeh" font-size="11" letter-spacing="0em"><tspan x="0" y="6.39">T-001</tspan></text>
<path id="Vector 3" d="M97 113V212" stroke="black"/>
<rect id="FEES_COUNTER" class="room" x="68.5" y="113.5" width="28" height="25" fill="#D9D9D9" stroke="black"/>
<rect id="S_006_007" class="room" x="177.5" y="114.5" width="52" height="63" fill="#D9D9D9" stroke="black"/>
<rect id="S_008_009" class="room" x="177.5" y="176.5" width="80" height="87" fill="#D9D9D9" stroke="black"/>
<rect id="S_010_011" class="room" x="177.5" y="330.5" width="80" height="99" fill="#D9D9D9" stroke="black"/>
<rect id="S_012_013" class="room" x="177.5" y="429.5" width="52" height="48" fill="#D9D9D9" stroke="black"/>
<rect id="R_001" class="room" x="179.5" y="32.5" width="107" height="60" fill="#D9D9D9" stroke="black"/>
<rect id="R_002" class="room" x="285.5" y="32.5" width="100" height="60" fill="#D9D9D9" stroke="black"/>
<rect id="R_003" class="room" x="384.5" y="32.5" width="54" height="60" fill="#D9D9D9" stroke="black"/>
<rect id="L_001" class="room" x="538.5" y="33.5" width="84" height="36" fill="#D9D9D9" stroke="black"/>
<rect id="LIFT3" class="room" x="649.5" y="36.5" width="33" height="33" fill="#D9D9D9" stroke="black"/>
<rect id="PCACS_LIBRARY" class="room" x="576.5" y="107.5" width="106" height="138" fill="#D9D9D9" stroke="black"/>
<rect id="OLD_CANTEEN" class="room" x="576.5" y="314.5" width="106" height="130" fill="#D9D9D9" stroke="black"/>
<g id="THE_QUAD">
<mask id="path-55-inside-1_2_2"  fill="white">
<path d="M557 254H683V305H557V337H514V225H557V254Z"/>
</mask>
<path d="M557 254H683V305H557V337H514V225H557V254Z" fill="#D9D9D9"/>
<path d="M557 254H556V255H557V254ZM683 254H684V253H683V254ZM683 305V306H684V305H683ZM557 305V304H556V305H557ZM557 337V338H558V337H557ZM514 337H513V338H514V337ZM514 225V224H513V225H514ZM557 225H558V224H557V225ZM557 254V255H683V254V253H557V254ZM683 254H682V305H683H684V254H683ZM683 305V304H557V305V306H683V305ZM557 305H556V337H557H558V305H557ZM557 337V336H514V337V338H557V337ZM514 337H515V225H514H513V337H514ZM514 225V226H557V225V224H514V225ZM557 225H556V254H557H558V225H557Z" fill="black" mask="url(#path-55-inside-1_2_2)"/>
</g>
<rect id="P_002" class="room" x="576.5" y="529.5" width="64" height="69" fill="#D9D9D9" stroke="black"/>
<g id="J_001">
<mask id="path-58-inside-2_2_2" fill="white">
<path d="M984 620H683V529H708V550H984V620Z"/>
</mask>
<path d="M984 620H683V529H708V550H984V620Z" fill="#D9D9D9"/>
<path d="M984 620V621H985V620H984ZM683 620H682V621H683V620ZM683 529V528H682V529H683ZM708 529H709V528H708V529ZM708 550H707V551H708V550ZM984 550H985V549H984V550ZM984 620V619H683V620V621H984V620ZM683 620H684V529H683H682V620H683ZM683 529V530H708V529V528H683V529ZM708 529H707V550H708H709V529H708ZM708 550V551H984V550V549H708V550ZM984 550H983V620H984H985V550H984Z" fill="black" mask="url(#path-58-inside-2_2_2)"/>
</g>
<rect id="Rectangle 30" class="room" x="982.5" y="550.5" width="31" height="69" fill="#D9D9D9" stroke="black"/>
<rect id="STORE_ROOM" class="room" x="998.5" y="566.5" width="15" height="26" fill="#D9D9D9" stroke="black"/>
<rect id="J_002" class="room" x="1012.5" y="502.5" width="65" height="64" fill="#D9D9D9" stroke="black"/>
<rect id="STAIRCASE2" class="room" x="708.5" y="470.5" width="149" height="40" fill="#D9D9D9" stroke="black"/>
<path id="Vector 9" d="M708 393C742.484 440.649 814.06 454.263 860 393" stroke="black"/>
<path id="Vector 10" d="M858 310C823.97 262.351 753.336 248.737 708 310" stroke="black"/>
<path id="Vector 11" d="M858 269C823.97 221.351 753.336 207.737 708 269" stroke="black"/>
<path id="Ellipse 1" d="M784.5 217.5C803.872 217.5 819.5 231.868 819.5 249.5C819.5 267.132 803.872 281.5 784.5 281.5C765.128 281.5 749.5 267.132 749.5 249.5C749.5 231.868 765.128 217.5 784.5 217.5Z" fill="#D9D9D9" stroke="black"/>
<rect id="CANTEEN" class="room" x="860.5" y="26.5" width="165" height="164" fill="#D9D9D9" stroke="black"/>
<g id="ATRIUM_STAIRCASE1">
<rect class="room" x="738.5" y="470.5" width="32" height="26" fill="#D9D9D9"/>
<rect x="738.5" y="470.5" width="32" height="26" stroke="black"/>
<rect x="738.5" y="470.5" width="32" height="26" stroke="black"/>
</g>
<g id="ATRIUM_STAIRCASE2">
<rect class="room" x="791.5" y="470.5" width="32" height="26" fill="#D9D9D9"/>
<rect x="791.5" y="470.5" width="32" height="26" stroke="black"/>
<rect x="791.5" y="470.5" width="32" height="26" stroke="black"/>
</g>
<rect id="STAIRCASE1" class="room" x="603.5" y="484.5" width="71" height="37" fill="#D9D9D9" stroke="black"/>
<rect id="RECEPTION_2" class="room" x="176.5" y="282.5" width="36" height="31" fill="#D9D9D9" stroke="black"/>
<path id="Vector 12" d="M237 263V332" stroke="black"/>
<path id="Vector 14" d="M707.5 55H859" stroke="black"/>
<rect id="MAIN_GATE" class="room" x="-22.5" y="522.5" width="62" height="76" fill="#D9D9D9" stroke="black"/>
<rect id="GATE_2" class="room" x="1070.5" y="-38.5" width="85" height="76" fill="#D9D9D9" stroke="black"/>
<rect id="P_001" class="room" x="640.5" y="529.5" width="25" height="69" fill="#D9D9D9" stroke="black"/>
<rect id="J_003" class="room" x="1012.5" y="566.5" width="64" height="53" fill="#D9D9D9" stroke="black"/>
<rect id="ATRIUM_2" class="room" x="771.5" y="236.5" width="27" height="24" fill="#D9D9D9" stroke="#B54C4C"/>
<g id="ARCHITECTURE_BLDG">
<mask id="path-80-inside-3_2_2" 
 fill="white">
<path d="M1014 228H999V261H1026V450H948V502H858V261H957V228H889V191H1014V228Z"/>
</mask>
<path d="M1014 228H999V261H1026V450H948V502H858V261H957V228H889V191H1014V228Z" fill="#D9D9D9"/>
<path d="M1014 228V229H1015V228H1014ZM999 228V227H998V228H999ZM999 261H998V262H999V261ZM1026 261H1027V260H1026V261ZM1026 450V451H1027V450H1026ZM948 450V449H947V450H948ZM948 502V503H949V502H948ZM858 502H857V503H858V502ZM858 261V260H857V261H858ZM957 261V262H958V261H957ZM957 228H958V227H957V228ZM889 228H888V229H889V228ZM889 191V190H888V191H889ZM1014 191H1015V190H1014V191ZM1014 228V227H999V228V229H1014V228ZM999 228H998V261H999H1000V228H999ZM999 261V262H1026V261V260H999V261ZM1026 261H1025V450H1026H1027V261H1026ZM1026 450V449H948V450V451H1026V450ZM948 450H947V502H948H949V450H948ZM948 502V501H858V502V503H948V502ZM858 502H859V261H858H857V502H858ZM858 261V262H957V261V260H858V261ZM957 261H958V228H957H956V261H957ZM957 228V227H889V228V229H957V228ZM889 228H890V191H889H888V228H889ZM889 191V192H1014V191V190H889V191ZM1014 191H1013V228H1014H1015V191H1014Z" fill="black" mask="url(#path-80-inside-3_2_2)"/>
</g>
<text id="FEES COUNTER" transform="matrix(0 1 -1 0 85 147)" fill="black" xml:space="preserve" style="white-space: pre" font-family="Katibeh" font-size="11" letter-spacing="0em"><tspan x="0" y="6.39">FEES COUNTER</tspan></text>
<text id="PLAYGROUND_2" fill="black" xml:space="preserve" style="white-space: pre" font-family="Katibeh" font-size="20" letter-spacing="0em"><tspan x="213" y="706.8">PLAYGROUND</tspan></text>
<text id="COURT_2" fill="black" xml:space="preserve" style="white-space: pre" font-family="Katibeh" font-size="20" letter-spacing="0em"><tspan x="635" y="730.8">COURT</tspan></text>
<text id="PARKING_2" fill="black" xml:space="preserve" style="white-space: pre" font-family="Katibeh" font-size="20" letter-spacing="0em"><tspan x="937" y="718.8">PARKING</tspan></text>
<text id="WORKSHOP_2" transform="matrix(0 1 -1 0 1166 640)" fill="black" xml:space="preserve" style="white-space: pre" font-family="Katibeh" font-size="20" letter-spacing="0em"><tspan x="0" y="11.8">WORKSHOP</tspan></text>
<circle id="ENTRANCE_NODE" class="node" cx="13" cy="610" r="4" fill="#FF2828" fill-opacity="0.67"/>
<circle id="NODE_1" class="node" cx="54" cy="610" r="4" fill="#FF2828" fill-opacity="0.67"/>
<circle id="NODE_2" class="node" cx="158" cy="610" r="4" fill="#FF2828" fill-opacity="0.67"/>
<circle id="NODE_C6" class="node" cx="533" cy="610" r="4" fill="#FF2828" fill-opacity="0.67"/>
<circle id="NODE_C5" class="node" cx="626" cy="651" r="4" fill="#FF2828" fill-opacity="0.67"/>
<circle id="NODE_C4" class="node" cx="998" cy="647" r="4" fill="#FF2828" fill-opacity="0.67"/>
<circle id="NODE_C3" class="node" cx="1104" cy="647" r="4" fill="#FF2828" fill-opacity="0.67"/>
<circle id="NODE_C2" class="node" cx="1096" cy="474" r="4" fill="#FF2828" fill-opacity="0.67"/>
<circle id="NODE_C1" class="node" cx="1062" cy="246" r="4" fill="#FF2828" fill-opacity="0.67"/>
<circle id="NODE_L3" class="node" cx="538" cy="285" r="4" fill="#FF2828" fill-opacity="0.67"/>
<circle id="NODE_S1_2" class="node" cx="162" cy="298" r="4" fill="#FF2828" fill-opacity="0.67"/>
<circle id="NODE_S004_008" class="node" cx="162" cy="236" r="4" fill="#2897FF" fill-opacity="0.67"/>
<circle id="NODE_S005_006" class="node" cx="162" cy="148" r="4" fill="#2897FF" fill-opacity="0.67"/>
<circle id="NODE_R001" class="node" cx="217" cy="103" r="4" fill="#2897FF" fill-opacity="0.67"/>
<circle id="NODE_R002" class="node" cx="323" cy="103" r="4" fill="#2897FF" fill-opacity="0.67"/>
<circle id="NODE_R003" class="node" cx="416" cy="103" r="4" fill="#2897FF" fill-opacity="0.67"/>
<circle id="NODE_R004_005" class="node" cx="465" cy="103" r="4" fill="#2897FF" fill-opacity="0.67"/>
<circle id="NODE_L001" class="node" cx="566" cy="82" r="4" fill="#2897FF" fill-opacity="0.67"/>
<circle id="NODE_LIFT3" class="node" cx="662" cy="82" r="4" fill="#2897FF" fill-opacity="0.67"/>
<circle id="NODE_ATR1" class="node" cx="740" cy="261" r="4" fill="#2897FF" fill-opacity="0.67"/>
<circle id="NODE_ATR2" class="node" cx="785" cy="250" r="4" fill="#2897FF" fill-opacity="0.67"/>
<circle id="NODE_ATR3" class="node" cx="836" cy="269" r="4" fill="#2897FF" fill-opacity="0.67"/>
<circle id="NODE_CANT1" class="node" cx="979" cy="269" r="4" fill="#2897FF" fill-opacity="0.67"/>
<circle id="NODE_CANT2" class="node" cx="979" cy="201" r="4" fill="#2897FF" fill-opacity="0.67"/>
<circle id="NODE_J4" class="node" cx="848" cy="456" r="4" fill="#2897FF" fill-opacity="0.67"/>
<circle id="NODE_J3" class="node" cx="808" cy="456" r="4" fill="#2897FF" fill-opacity="0.67"/>
<circle id="NODE_J2" class="node" cx="759" cy="456" r="4" fill="#2897FF" fill-opacity="0.67"/>
<circle id="NODE_J1" class="node" cx="699" cy="456" r="4" fill="#2897FF" fill-opacity="0.67"/>
<circle id="NODE_STR_ROOM" class="node" cx="998" cy="602" r="4" fill="#2897FF" fill-opacity="0.67"/>
<circle id="NODE_LIB_PCACS" class="node" cx="566" cy="209" r="4" fill="#2897FF" fill-opacity="0.67"/>
<circle id="NODE_OC" class="node" cx="566" cy="344" r="4" fill="#2897FF" fill-opacity="0.67"/>
<circle id="NODE_OC_1" class="node" cx="566" cy="439" r="4" fill="#2897FF" fill-opacity="0.67"/>
<circle id="NODE_T001" class="node" cx="384" cy="487" r="4" fill="#2897FF" fill-opacity="0.67"/>
<circle id="NODE_S003_010" class="node" cx="162" cy="356" r="4" fill="#2897FF" fill-opacity="0.67"/>
<circle id="NODE_S002_010" class="node" cx="162" cy="400" r="4" fill="#2897FF" fill-opacity="0.67"/>
<circle id="NODE_S001_012" class="node" cx="162" cy="454" r="4" fill="#2897FF" fill-opacity="0.67"/>
<circle id="NODE_LIFT2" class="node" cx="129" cy="77" r="4" fill="#2897FF" fill-opacity="0.67"/>
<circle id="NODE_LIFT1" class="node" cx="124" cy="507" r="4" fill="#2897FF" fill-opacity="0.67"/>
<circle id="NODE_P002" class="node" cx="591" cy="519" r="4" fill="#2897FF" fill-opacity="0.67"/>
<circle id="NODE_3" class="node" cx="54" cy="298" r="4" fill="#FF2828" fill-opacity="0.67"/>
<circle id="NODE_4" class="node" cx="54" cy="131" r="4" fill="#FF2828" fill-opacity="0.67"/>
</g>
<defs>
<clipPath id="clip0_2_2">
<rect width="1200" height="800" fill="white"/>
</clipPath>
</defs>
</svg>
